<svg width="18" height="12" viewBox="0 0 18 12" fill="none" xmlns="http://www.w3.org/2000/svg">
<path fill-rule="evenodd" clip-rule="evenodd" d="M17.6667 1.66666C17.6667 1.11437 17.2189 0.666656 16.6667 0.666656H15.6667C15.1144 0.666656 14.6667 1.11437 14.6667 1.66666V10.3333C14.6667 10.8856 15.1144 11.3333 15.6667 11.3333H16.6667C17.2189 11.3333 17.6667 10.8856 17.6667 10.3333V1.66666ZM11 2.99999H12C12.5523 2.99999 13 3.44771 13 3.99999V10.3333C13 10.8856 12.5523 11.3333 12 11.3333H11C10.4477 11.3333 10 10.8856 10 10.3333V3.99999C10 3.44771 10.4477 2.99999 11 2.99999ZM7.33333 5.33332H6.33333C5.78105 5.33332 5.33333 5.78104 5.33333 6.33332V10.3333C5.33333 10.8856 5.78105 11.3333 6.33333 11.3333H7.33333C7.88562 11.3333 8.33333 10.8856 8.33333 10.3333V6.33332C8.33333 5.78104 7.88562 5.33332 7.33333 5.33332ZM3.66666 8.33332C3.66666 7.78104 3.21895 7.33332 2.66666 7.33332H1.66666C1.11438 7.33332 0.666664 7.78104 0.666664 8.33332V10.3333C0.666664 10.8856 1.11438 11.3333 1.66666 11.3333H2.66666C3.21895 11.3333 3.66666 10.8856 3.66666 10.3333V8.33332Z" fill="black"/>
</svg>
